<?xml version="1.0" encoding="UTF-8" standalone="no"?>
<!-- Created with Inkscape (http://www.inkscape.org/) -->

<svg
   width="40.845875mm"
   height="19.999998mm"
   viewBox="0 0 40.845875 19.999998"
   version="1.1"
   id="svg5"
   xml:space="preserve"
   inkscape:version="1.2.2 (732a01da63, 2022-12-09)"
   sodipodi:docname="location accuracy.svg"
   xmlns:inkscape="http://www.inkscape.org/namespaces/inkscape"
   xmlns:sodipodi="http://sodipodi.sourceforge.net/DTD/sodipodi-0.dtd"
   xmlns="http://www.w3.org/2000/svg"
   xmlns:svg="http://www.w3.org/2000/svg"><sodipodi:namedview
     id="namedview7"
     pagecolor="#ffffff"
     bordercolor="#666666"
     borderopacity="1.0"
     inkscape:showpageshadow="2"
     inkscape:pageopacity="0.0"
     inkscape:pagecheckerboard="0"
     inkscape:deskcolor="#d1d1d1"
     inkscape:document-units="mm"
     showgrid="false"
     inkscape:zoom="3.0467172"
     inkscape:cx="89.768753"
     inkscape:cy="423.73477"
     inkscape:window-width="1920"
     inkscape:window-height="1009"
     inkscape:window-x="-8"
     inkscape:window-y="-8"
     inkscape:window-maximized="1"
     inkscape:current-layer="g3685-2"
     showguides="true" /><defs
     id="defs2"><inkscape:path-effect
       effect="fillet_chamfer"
       id="path-effect3608"
       is_visible="true"
       lpeversion="1"
       nodesatellites_param="F,0,0,1,0,0.52916667,0,1 @ F,0,0,1,0,0.52916667,0,1 @ F,0,0,1,0,0.52916667,0,1 @ F,0,0,1,0,0.52916667,0,1"
       unit="px"
       method="auto"
       mode="F"
       radius="2"
       chamfer_steps="1"
       flexible="false"
       use_knot_distance="true"
       apply_no_radius="true"
       apply_with_radius="true"
       only_selected="false"
       hide_knots="false" /><inkscape:path-effect
       effect="fillet_chamfer"
       id="path-effect3608-2"
       is_visible="true"
       lpeversion="1"
       nodesatellites_param="F,0,0,1,0,0.52916667,0,1 @ F,0,0,1,0,0.52916667,0,1 @ F,0,0,1,0,0.52916667,0,1 @ F,0,0,1,0,0.52916667,0,1"
       unit="px"
       method="auto"
       mode="F"
       radius="2"
       chamfer_steps="1"
       flexible="false"
       use_knot_distance="true"
       apply_no_radius="true"
       apply_with_radius="true"
       only_selected="false"
       hide_knots="false" /><inkscape:path-effect
       effect="fillet_chamfer"
       id="path-effect3608-2-9"
       is_visible="true"
       lpeversion="1"
       nodesatellites_param="F,0,0,1,0,0.52916667,0,1 @ F,0,0,1,0,0.52916667,0,1 @ F,0,0,1,0,0.52916667,0,1 @ F,0,0,1,0,0.52916667,0,1"
       unit="px"
       method="auto"
       mode="F"
       radius="2"
       chamfer_steps="1"
       flexible="false"
       use_knot_distance="true"
       apply_no_radius="true"
       apply_with_radius="true"
       only_selected="false"
       hide_knots="false" /></defs><g
     inkscape:label="Layer 1"
     inkscape:groupmode="layer"
     id="layer1"
     transform="translate(-12.171231,-93.739469)"><g
       id="g3685"
       transform="translate(-9.7263158,-19.973684)"
       inkscape:export-filename="gps_reception_3_bars.svg"
       inkscape:export-xdpi="96"
       inkscape:export-ydpi="96"><g
         id="g1514"
         transform="matrix(0.05054206,0,0,0.05054206,18.838184,113.71315)">
	<path
   d="M 197.849,0 C 122.131,0 60.531,61.609 60.531,137.329 c 0,72.887 124.591,243.177 129.896,250.388 l 4.951,6.738 c 0.579,0.792 1.501,1.255 2.471,1.255 0.985,0 1.901,-0.463 2.486,-1.255 l 4.948,-6.738 C 210.591,380.506 335.179,210.216 335.179,137.329 335.179,61.609 273.569,0 197.849,0 Z m 0,88.138 c 27.13,0 49.191,22.062 49.191,49.191 0,27.115 -22.062,49.191 -49.191,49.191 -27.114,0 -49.191,-22.076 -49.191,-49.191 0,-27.129 22.076,-49.191 49.191,-49.191 z"
   id="path1512" />
</g><path
         style="fill:#000000;fill-opacity:1;stroke:none;stroke-width:1.828;stroke-linecap:round;stroke-dashoffset:21.451;stroke-opacity:1;paint-order:markers stroke fill"
         id="rect2880"
         width="6.8605266"
         height="10"
         x="37.906494"
         y="123.71315"
         inkscape:path-effect="#path-effect3608"
         d="m 38.435661,123.71315 h 5.802193 a 0.52916667,0.52916667 45 0 1 0.529167,0.52917 v 8.94166 a 0.52916667,0.52916667 135 0 1 -0.529167,0.52917 h -5.802193 a 0.52916667,0.52916667 45 0 1 -0.529167,-0.52917 v -8.94166 a 0.52916667,0.52916667 135 0 1 0.529167,-0.52917 z"
         sodipodi:type="rect" /><path
         style="fill:#000000;fill-opacity:1;stroke:none;stroke-width:1.828;stroke-linecap:round;stroke-dashoffset:21.451;stroke-opacity:1;paint-order:markers stroke fill"
         id="rect2880-5"
         width="6.8605266"
         height="15"
         x="46.894695"
         y="118.71315"
         inkscape:path-effect="#path-effect3608-2"
         d="m 47.423862,118.71315 h 5.802193 a 0.52916667,0.52916667 45 0 1 0.529167,0.52917 v 13.94166 a 0.52916667,0.52916667 135 0 1 -0.529167,0.52917 h -5.802193 a 0.52916667,0.52916667 45 0 1 -0.529167,-0.52917 v -13.94166 a 0.52916667,0.52916667 135 0 1 0.529167,-0.52917 z"
         sodipodi:type="rect" /><path
         style="fill:#000000;fill-opacity:1;stroke:none;stroke-width:1.828;stroke-linecap:round;stroke-dashoffset:21.451;stroke-opacity:1;paint-order:markers stroke fill"
         id="rect2880-5-0"
         width="6.8605266"
         height="20"
         x="55.882893"
         y="113.71315"
         inkscape:path-effect="#path-effect3608-2-9"
         d="m 56.412059,113.71315 h 5.802194 a 0.52916667,0.52916667 45 0 1 0.529166,0.52917 v 18.94166 a 0.52916667,0.52916667 135 0 1 -0.529166,0.52917 h -5.802194 a 0.52916667,0.52916667 45 0 1 -0.529166,-0.52917 v -18.94166 a 0.52916667,0.52916667 135 0 1 0.529166,-0.52917 z"
         sodipodi:type="rect" /></g></g></svg>
